<svg width="23" height="23" viewBox="0 0 23 23" fill="none" xmlns="http://www.w3.org/2000/svg">
    <path d="M9.82275 12.4583C9.82275 13.1196 9.28609 13.6562 8.62484 13.6562C7.96359 13.6562 7.42692 13.1196 7.42692 12.4583C7.42692 11.7971 7.96359 11.2604 8.62484 11.2604C9.28609 11.2604 9.82275 11.7971 9.82275 12.4583ZM14.3748 11.2604C13.7136 11.2604 13.1769 11.7971 13.1769 12.4583C13.1769 13.1196 13.7136 13.6562 14.3748 13.6562C15.0361 13.6562 15.5728 13.1196 15.5728 12.4583C15.5728 11.7971 15.0361 11.2604 14.3748 11.2604ZM21.0832 11.5C21.0832 16.79 16.7898 21.0833 11.4998 21.0833C6.20984 21.0833 1.9165 16.79 1.9165 11.5C1.9165 6.21 6.20984 1.91666 11.4998 1.91666C16.7898 1.91666 21.0832 6.21 21.0832 11.5ZM10.2157 3.94833C11.5573 6.17166 13.9915 7.66666 16.7707 7.66666C17.2115 7.66666 17.6428 7.61875 18.0548 7.55166C16.7132 5.32833 14.279 3.83333 11.4998 3.83333C11.059 3.83333 10.6278 3.88125 10.2157 3.94833ZM4.23567 9.07541C5.87442 8.14583 7.13942 6.63166 7.74317 4.82041C6.10442 5.75 4.83942 7.26416 4.23567 9.07541ZM19.1665 11.5C19.1665 10.7525 19.0515 10.0337 18.8503 9.35333C18.1794 9.49708 17.4894 9.58333 16.7707 9.58333C13.7711 9.58333 11.0973 8.20333 9.334 6.04708C8.32775 8.50041 6.32484 10.4267 3.83317 11.3658C3.84275 11.4042 3.83317 11.4521 3.83317 11.5C3.83317 15.7262 7.27359 19.1667 11.4998 19.1667C15.7261 19.1667 19.1665 15.7262 19.1665 11.5Z"/>
</svg>
