<svg width="133" height="70" viewBox="0 0 133 70" fill="none" xmlns="http://www.w3.org/2000/svg">
    <path d="M133 0H0V70H133V0Z" fill="#FBC02D"/>
    <path d="M14.9485 23.1525C14.9485 22.575 14.9573 21.98 14.9748 21.3675C15.0097 20.755 15.0883 20.1687 15.2105 19.6087C15.3327 19.0487 15.5336 18.5237 15.813 18.0337C16.0924 17.5263 16.4766 17.0887 16.9656 16.7213C17.472 16.3363 18.1094 16.0387 18.8777 15.8287C19.6636 15.6187 20.6241 15.5137 21.7592 15.5137H25.1907V17.2725H22.3093C21.3663 17.2725 20.5542 17.3513 19.8732 17.5087C19.2096 17.6663 18.6508 17.9375 18.1967 18.3225C17.7601 18.69 17.437 19.1975 17.2275 19.845C17.0179 20.4925 16.9131 21.3063 16.9131 22.2863V32.2087H24.9026V33.9675H16.9131V52.08H14.9485V23.1525ZM27.9412 52.08V11.025H29.9058V52.08H27.9412ZM37.8952 27.1163C37.057 27.1163 36.4108 27.3963 35.9568 27.9563C35.5202 28.5163 35.302 29.1987 35.302 30.0037V39.27H37.8952C38.716 39.27 39.3447 38.9987 39.7813 38.4563C40.2353 37.9137 40.4623 37.2313 40.4623 36.4087V27.1163H37.8952ZM42.427 25.3575V36.225C42.427 36.925 42.3309 37.5725 42.1388 38.1675C41.9467 38.745 41.6586 39.2525 41.2744 39.69C40.8902 40.11 40.4099 40.4425 39.8336 40.6875C39.2748 40.915 38.6287 41.0287 37.8952 41.0287H35.302V47.985C35.302 48.79 35.5202 49.4725 35.9568 50.0325C36.4108 50.575 37.057 50.8463 37.8952 50.8463C38.716 50.8463 39.3447 50.5313 39.7813 49.9013C40.2353 49.2713 40.4623 48.5013 40.4623 47.5913L42.4007 47.3025C42.4007 48.055 42.3047 48.755 42.1126 49.4025C41.9205 50.05 41.6324 50.61 41.2482 51.0825C40.8814 51.555 40.4099 51.9225 39.8336 52.185C39.2748 52.465 38.6287 52.605 37.8952 52.605C37.1443 52.605 36.4807 52.4825 35.9044 52.2375C35.3456 51.9925 34.8741 51.66 34.4899 51.24C34.1057 50.8025 33.8176 50.295 33.6255 49.7175C33.4334 49.1225 33.3373 48.4837 33.3373 47.8013V30.1613C33.3373 29.4613 33.4334 28.8225 33.6255 28.245C33.8176 27.65 34.1057 27.1425 34.4899 26.7225C34.8741 26.285 35.3456 25.9525 35.9044 25.725C36.4807 25.48 37.1443 25.3575 37.8952 25.3575H42.427ZM56.9128 20.2125C56.9128 22.295 56.7905 24.0713 56.5462 25.5413C56.3015 26.9937 55.9612 28.2537 55.5244 29.3213C55.1053 30.3887 54.6076 31.3163 54.0313 32.1037C53.4724 32.8737 52.87 33.6175 52.2238 34.335C52.7477 34.9825 53.2367 35.6825 53.6907 36.435C54.1623 37.1875 54.5639 38.0713 54.8957 39.0863C55.2275 40.0837 55.4895 41.2563 55.6815 42.6037C55.8736 43.9337 55.9695 45.5087 55.9695 47.3287V52.08H54.0051V47.4075C54.0051 45.675 53.8916 44.1437 53.6645 42.8137C53.4549 41.4663 53.1668 40.2763 52.8001 39.2437C52.4509 38.2113 52.0317 37.3187 51.5428 36.5663C51.0712 35.8137 50.5735 35.175 50.0496 34.65C49.5257 35.175 49.0281 35.8225 48.5565 36.5925C48.085 37.345 47.6659 38.2463 47.2992 39.2963C46.9325 40.3287 46.6443 41.5187 46.4348 42.8663C46.2252 44.1963 46.1204 45.71 46.1204 47.4075V52.08H44.1558V47.25C44.1558 45.0625 44.2781 43.2337 44.5225 41.7637C44.767 40.2937 45.0988 39.0513 45.5179 38.0363C45.9545 37.0037 46.4522 36.1287 47.011 35.4113C47.5873 34.6937 48.1985 33.9763 48.8447 33.2587C48.3208 32.6287 47.8231 31.9637 47.3516 31.2637C46.8975 30.5637 46.5046 29.7237 46.1728 28.7437C45.841 27.7463 45.5791 26.5737 45.387 25.2263C45.1949 23.8613 45.0988 22.2163 45.0988 20.2913V15.5137H47.0635V20.1337C47.0635 21.8313 47.1682 23.3537 47.3777 24.7013C47.5873 26.0487 47.8755 27.2387 48.2422 28.2713C48.6089 29.3037 49.0281 30.205 49.4995 30.975C49.9711 31.7275 50.4688 32.3663 50.9927 32.8913C51.5166 32.3663 52.0142 31.7275 52.4858 30.975C52.9748 30.2225 53.3939 29.33 53.7431 28.2975C54.1098 27.265 54.398 26.0837 54.6076 24.7537C54.8346 23.4063 54.9481 21.8663 54.9481 20.1337V15.5137H56.9128V20.2125ZM71.0578 17.5087C71.0578 20.8687 70.8918 23.7125 70.5604 26.04C70.2285 28.35 69.6786 30.3013 68.9097 31.8937C68.1592 33.4687 67.1639 34.7637 65.9239 35.7787C64.7012 36.7937 63.1907 37.6775 61.3918 38.43V52.08H59.4275V23.1525C59.4275 22.2775 59.4622 21.385 59.532 20.475C59.6198 19.565 59.8729 18.7425 60.292 18.0075C60.7285 17.2725 61.4097 16.6775 62.3351 16.2225C63.2605 15.75 64.5704 15.5137 66.2642 15.5137H71.0578V17.5087ZM61.3918 36.4087C61.8808 36.1987 62.4139 35.945 62.99 35.6475C63.5662 35.35 64.134 34.9563 64.6928 34.4663C65.2689 33.9587 65.8188 33.32 66.343 32.55C66.8845 31.78 67.3556 30.8175 67.7574 29.6625C68.1592 28.49 68.4822 27.0987 68.7264 25.4887C68.9711 23.8613 69.0935 21.945 69.0935 19.74V17.2725H66.7884C65.8624 17.2725 65.0594 17.3513 64.3782 17.5087C63.697 17.6663 63.1297 17.9375 62.6754 18.3225C62.239 18.69 61.916 19.1975 61.7064 19.845C61.4969 20.4925 61.3918 21.3063 61.3918 22.2863V36.4087ZM73.6775 52.08V11.025H75.6418V52.08H73.6775ZM83.3435 50.3213C84.1817 50.3213 84.8188 50.0413 85.2552 49.4813C85.7096 48.9213 85.9365 48.2387 85.9365 47.4337V38.1675H83.3435C82.5226 38.1675 81.885 38.4387 81.4312 38.9813C80.9948 39.5237 80.7763 40.2063 80.7763 41.0287V50.3213H83.3435ZM78.8115 52.08V41.2125C78.8115 40.5125 78.9076 39.8737 79.0998 39.2963C79.292 38.7013 79.5798 38.1937 79.9643 37.7737C80.3482 37.3363 80.8199 37.0037 81.3787 36.7763C81.9548 36.5313 82.6098 36.4087 83.3435 36.4087H85.9365V29.4525C85.9365 28.6475 85.7096 27.9737 85.2552 27.4313C84.8188 26.8713 84.1817 26.5913 83.3435 26.5913C82.5226 26.5913 81.885 26.9063 81.4312 27.5363C80.9948 28.1663 80.7763 28.9363 80.7763 29.8463L78.8377 30.135C78.8377 29.3825 78.9338 28.6825 79.1261 28.035C79.3183 27.3875 79.5977 26.8275 79.9643 26.355C80.3482 25.8825 80.8199 25.515 81.3787 25.2525C81.9548 24.9725 82.6098 24.8325 83.3435 24.8325C84.094 24.8325 84.749 24.955 85.3078 25.2C85.8845 25.445 86.3645 25.7863 86.7484 26.2237C87.1329 26.6437 87.4212 27.1513 87.6129 27.7463C87.8052 28.3237 87.9013 28.9537 87.9013 29.6363V47.2763C87.9013 47.9763 87.8052 48.6237 87.6129 49.2187C87.4212 49.7963 87.1329 50.3037 86.7484 50.7413C86.3645 51.1613 85.8845 51.4937 85.3078 51.7387C84.749 51.9663 84.094 52.08 83.3435 52.08H78.8115ZM98.1959 52.08C97.4801 51.905 96.7027 51.5025 95.8645 50.8725C95.0436 50.2425 94.2752 49.3587 93.5594 48.2213C92.8435 47.0837 92.2495 45.675 91.7778 43.995C91.3067 42.2975 91.0709 40.285 91.0709 37.9575V25.3575H93.0352V37.9575C93.0352 40.04 93.2185 41.8163 93.5856 43.2863C93.9695 44.7387 94.4239 45.9463 94.9475 46.9087C95.489 47.8537 96.0567 48.58 96.6502 49.0875C97.2442 49.5775 97.7595 49.9013 98.1959 50.0587V25.3575H100.16V63.7347H98.1959V52.08ZM108.15 27.1163C107.311 27.1163 106.665 27.3963 106.211 27.9563C105.775 28.5163 105.557 29.1987 105.557 30.0037V39.27H108.15C108.971 39.27 109.599 38.9987 110.036 38.4563C110.49 37.9137 110.717 37.2313 110.717 36.4087V27.1163H108.15ZM112.682 25.3575V36.225C112.682 36.925 112.586 37.5725 112.393 38.1675C112.201 38.745 111.913 39.2525 111.529 39.69C111.145 40.11 110.664 40.4425 110.088 40.6875C109.529 40.915 108.883 41.0287 108.15 41.0287H105.557V47.985C105.557 48.79 105.775 49.4725 106.211 50.0325C106.665 50.575 107.311 50.8463 108.15 50.8463C108.971 50.8463 109.599 50.5313 110.036 49.9013C110.49 49.2713 110.717 48.5013 110.717 47.5913L112.655 47.3025C112.655 48.055 112.559 48.755 112.367 49.4025C112.175 50.05 111.887 50.61 111.503 51.0825C111.136 51.555 110.664 51.9225 110.088 52.185C109.529 52.465 108.883 52.605 108.15 52.605C107.399 52.605 106.735 52.4825 106.159 52.2375C105.6 51.9925 105.129 51.66 104.745 51.24C104.36 50.8025 104.072 50.295 103.88 49.7175C103.688 49.1225 103.592 48.4837 103.592 47.8013V30.1613C103.592 29.4613 103.688 28.8225 103.88 28.245C104.072 27.65 104.36 27.1425 104.745 26.7225C105.129 26.285 105.6 25.9525 106.159 25.725C106.735 25.48 107.399 25.3575 108.15 25.3575H112.682ZM121.352 26.9587C121.09 26.8887 120.776 26.8537 120.409 26.8537C119.571 26.8537 118.924 27.1337 118.471 27.6937C118.034 28.2537 117.816 28.9363 117.816 29.7413V52.08H115.851V29.8987C115.851 29.1987 115.947 28.56 116.139 27.9825C116.331 27.3875 116.62 26.88 117.004 26.46C117.388 26.0225 117.859 25.69 118.418 25.4625C118.995 25.2175 119.658 25.095 120.409 25.095C120.723 25.095 121.029 25.1213 121.326 25.1737C121.623 25.2087 121.893 25.27 122.138 25.3575L121.352 26.9587Z" fill="black"/>
</svg>
