<svg width="23" height="23" viewBox="0 0 23 23" fill="none" xmlns="http://www.w3.org/2000/svg">
    <path d="M1.91683 16.2917H21.0835V18.2083H1.91683V16.2917ZM3.01891 12.4104L3.8335 10.9921L4.64808 12.4104L5.89391 11.6917L5.07933 10.2733H6.7085V8.83583H5.07933L5.89391 7.42708L4.64808 6.70833L3.8335 8.11708L3.01891 6.70833L1.77308 7.42708L2.58766 8.83583H0.958496V10.2733H2.58766L1.77308 11.6917L3.01891 12.4104ZM9.43975 11.6917L10.6856 12.4104L11.5002 10.9921L12.3147 12.4104L13.5606 11.6917L12.746 10.2733H14.3752V8.83583H12.746L13.5606 7.42708L12.3147 6.70833L11.5002 8.11708L10.6856 6.70833L9.43975 7.42708L10.2543 8.83583H8.62516V10.2733H10.2543L9.43975 11.6917ZM22.0418 8.83583H20.4127L21.2272 7.42708L19.9814 6.70833L19.1668 8.11708L18.3522 6.70833L17.1064 7.42708L17.921 8.83583H16.2918V10.2733H17.921L17.1064 11.6917L18.3522 12.4104L19.1668 10.9921L19.9814 12.4104L21.2272 11.6917L20.4127 10.2733H22.0418V8.83583Z"/>
</svg>
