<svg width="22" height="22" viewBox="0 0 22 22" fill="none" xmlns="http://www.w3.org/2000/svg">
    <g clip-path="url(#clip0)">
        <path d="M11 3.66667V2.02584C11 1.61334 10.505 1.41167 10.2208 1.70501L7.65416 4.26251C7.47083 4.44584 7.47083 4.73001 7.65416 4.91334L10.2117 7.47084C10.505 7.75501 11 7.55334 11 7.14084V5.50001C14.0342 5.50001 16.5 7.96584 16.5 11C16.5 11.7242 16.3625 12.43 16.0967 13.0625C15.9592 13.3925 16.06 13.7683 16.3075 14.0158C16.775 14.4833 17.5633 14.3183 17.8108 13.7042C18.15 12.87 18.3333 11.9533 18.3333 11C18.3333 6.94834 15.0517 3.66667 11 3.66667ZM11 16.5C7.96583 16.5 5.5 14.0342 5.5 11C5.5 10.2758 5.6375 9.57001 5.90333 8.93751C6.04083 8.60751 5.94 8.23167 5.6925 7.98417C5.225 7.51667 4.43666 7.68167 4.18916 8.29584C3.85 9.13001 3.66666 10.0467 3.66666 11C3.66666 15.0517 6.94833 18.3333 11 18.3333V19.9742C11 20.3867 11.495 20.5883 11.7792 20.295L14.3367 17.7375C14.52 17.5542 14.52 17.27 14.3367 17.0867L11.7792 14.5292C11.495 14.245 11 14.4467 11 14.8592V16.5V16.5Z" fill="#FBC02D"/>
    </g>
    <defs>
        <clipPath id="clip0">
            <rect width="22" height="22" fill="white"/>
        </clipPath>
    </defs>
</svg>
